<svg width="707" height="302" viewBox="0 0 707 302" fill="none" xmlns="http://www.w3.org/2000/svg">
<path d="M126.287 4.45599H186.447V16.36H138.703V44.52H181.327V56.424H138.703V85.096H188.239V97H126.287V4.45599ZM245.115 84.968H276.859V97H228.603L245.115 84.968ZM178.427 50.792C178.427 44.392 179.622 38.376 182.011 32.744C184.486 27.0267 187.899 21.992 192.251 17.64C196.603 13.2027 201.595 9.74666 207.227 7.272C212.944 4.712 219.088 3.432 225.659 3.432C232.144 3.432 238.203 4.712 243.835 7.272C249.552 9.74666 254.587 13.2027 258.939 17.64C263.376 21.992 266.832 27.0267 269.307 32.744C271.782 38.376 273.019 44.392 273.019 50.792C273.019 57.3627 271.782 63.5067 269.307 69.224C266.832 74.9413 263.376 79.976 258.939 84.328C254.587 88.5947 249.552 91.9653 243.835 94.44C238.203 96.8293 232.144 98.024 225.659 98.024C219.088 98.024 212.944 96.8293 207.227 94.44C201.595 92.0507 196.603 88.7227 192.251 84.456C187.899 80.1893 184.486 75.1973 182.011 69.48C179.622 63.7627 178.427 57.5333 178.427 50.792ZM191.227 50.92C191.227 55.784 192.123 60.3493 193.915 64.616C195.707 68.7973 198.182 72.5093 201.339 75.752C204.496 78.9947 208.166 81.512 212.347 83.304C216.528 85.096 221.051 85.992 225.915 85.992C230.694 85.992 235.174 85.096 239.355 83.304C243.536 81.512 247.163 78.9947 250.235 75.752C253.307 72.5093 255.739 68.7973 257.531 64.616C259.323 60.3493 260.219 55.7413 260.219 50.792C260.219 46.0133 259.323 41.4907 257.531 37.224C255.739 32.9573 253.264 29.2453 250.107 26.088C246.95 22.8453 243.28 20.328 239.099 18.536C234.918 16.6587 230.438 15.72 225.659 15.72C220.795 15.72 216.272 16.6587 212.091 18.536C207.91 20.328 204.24 22.8453 201.083 26.088C197.926 29.3307 195.494 33.0853 193.787 37.352C192.08 41.6187 191.227 46.1413 191.227 50.92ZM283.223 64.232C283.223 68.4133 284.204 72.168 286.167 75.496C288.215 78.7387 290.903 81.2987 294.231 83.176C297.559 85.0533 301.314 85.992 305.495 85.992C309.847 85.992 313.73 85.0533 317.143 83.176C320.556 81.2987 323.244 78.7387 325.207 75.496C327.17 72.168 328.151 68.4133 328.151 64.232V4.45599H340.311V64.616C340.311 71.3573 338.732 77.2453 335.575 82.28C332.503 87.3147 328.322 91.1973 323.031 93.928C317.826 96.6587 311.98 98.024 305.495 98.024C299.01 98.024 293.164 96.6587 287.959 93.928C282.754 91.1973 278.615 87.3147 275.543 82.28C272.471 77.2453 270.935 71.3573 270.935 64.616V4.45599H283.223V64.232ZM329.271 97L369.719 0.615997H370.487L410.807 97H396.599L366.391 20.072L375.223 14.312L341.431 97H329.271ZM352.951 61.928H387.383L391.479 72.68H349.367L352.951 61.928ZM402.637 4.45599H415.053V85.096H462.029V97H402.637V4.45599ZM456.662 4.45599H469.078V97H456.662V4.45599ZM463.278 4.45599H524.718V16.36H499.886V97H487.47V16.36H463.278V4.45599ZM543.413 66.152L509.109 4.45599H524.341L551.861 55.528L548.021 55.784L575.285 4.45599H590.389L555.829 66.152V97H543.413V66.152Z" fill="white"/>
<path d="M127.553 204.968H141.889L166.977 275.624L164.801 274.728L183.105 227.368L188.865 244.136L164.417 301.224L127.553 204.968ZM171.969 204.968H184.385L211.521 274.6L208.961 274.088L232.897 204.968H246.081L209.729 301.096L171.969 204.968ZM248.267 250.792C248.267 244.392 249.462 238.376 251.851 232.744C254.326 227.027 257.739 221.992 262.091 217.64C266.443 213.203 271.435 209.747 277.067 207.272C282.784 204.712 288.928 203.432 295.499 203.432C301.984 203.432 308.043 204.712 313.675 207.272C319.392 209.747 324.427 213.203 328.779 217.64C333.216 221.992 336.672 227.027 339.147 232.744C341.622 238.376 342.859 244.392 342.859 250.792C342.859 257.363 341.622 263.507 339.147 269.224C336.672 274.941 333.216 279.976 328.779 284.328C324.427 288.595 319.392 291.965 313.675 294.44C308.043 296.829 301.984 298.024 295.499 298.024C288.928 298.024 282.784 296.829 277.067 294.44C271.435 292.051 266.443 288.723 262.091 284.456C257.739 280.189 254.326 275.197 251.851 269.48C249.462 263.763 248.267 257.533 248.267 250.792ZM261.067 250.92C261.067 255.784 261.963 260.349 263.755 264.616C265.547 268.797 268.022 272.509 271.179 275.752C274.336 278.995 278.006 281.555 282.187 283.432C286.368 285.224 290.891 286.12 295.755 286.12C300.534 286.12 305.014 285.224 309.195 283.432C313.376 281.555 317.003 278.995 320.075 275.752C323.147 272.509 325.579 268.797 327.371 264.616C329.163 260.349 330.059 255.741 330.059 250.792C330.059 245.928 329.163 241.363 327.371 237.096C325.579 232.744 323.104 228.947 319.947 225.704C316.79 222.461 313.12 219.944 308.939 218.152C304.758 216.275 300.278 215.336 295.499 215.336C290.635 215.336 286.112 216.275 281.931 218.152C277.75 220.029 274.08 222.589 270.923 225.832C267.766 229.075 265.334 232.872 263.627 237.224C261.92 241.491 261.067 246.056 261.067 250.92ZM384.513 204.456C389.206 204.456 393.516 205.096 397.441 206.376C401.452 207.571 404.908 209.405 407.809 211.88C410.796 214.269 413.1 217.256 414.721 220.84C416.428 224.339 417.281 228.435 417.281 233.128C417.281 236.797 416.726 240.381 415.617 243.88C414.593 247.379 412.844 250.579 410.369 253.48C407.894 256.296 404.652 258.6 400.641 260.392C396.716 262.099 391.852 262.952 386.049 262.952H372.353V297H359.937V204.456H384.513ZM385.793 251.048C389.462 251.048 392.492 250.493 394.881 249.384C397.356 248.275 399.276 246.867 400.641 245.16C402.006 243.368 402.988 241.448 403.585 239.4C404.182 237.352 404.481 235.432 404.481 233.64C404.481 231.763 404.14 229.843 403.457 227.88C402.86 225.832 401.836 223.955 400.385 222.248C399.02 220.541 397.185 219.133 394.881 218.024C392.662 216.915 389.932 216.36 386.689 216.36H372.353V251.048H385.793ZM401.025 258.088L425.217 297H410.881L386.305 258.472L401.025 258.088ZM453.016 241.704L452.632 246.312L454.296 244.008L492.184 204.456H508.184L469.912 244.136L510.36 297H494.616L460.824 252.072L453.016 259.624V297H440.472V204.456H453.016V241.704ZM571.379 220.968C568.222 219.347 564.766 217.939 561.011 216.744C557.256 215.549 553.587 214.952 550.003 214.952C545.054 214.952 541.086 216.104 538.099 218.408C535.198 220.712 533.747 223.784 533.747 227.624C533.747 230.525 534.686 233 536.563 235.048C538.44 237.011 540.915 238.717 543.987 240.168C547.059 241.619 550.259 242.984 553.587 244.264C556.488 245.373 559.347 246.611 562.163 247.976C564.979 249.341 567.496 251.048 569.715 253.096C572.019 255.144 573.811 257.661 575.091 260.648C576.456 263.635 577.139 267.347 577.139 271.784C577.139 276.648 575.902 281.085 573.427 285.096C571.038 289.107 567.582 292.264 563.059 294.568C558.536 296.872 553.16 298.024 546.931 298.024C542.835 298.024 538.91 297.555 535.155 296.616C531.486 295.677 528.072 294.483 524.915 293.032C521.758 291.496 518.942 289.917 516.467 288.296L521.971 278.568C524.019 280.019 526.366 281.427 529.011 282.792C531.656 284.072 534.43 285.139 537.331 285.992C540.232 286.76 543.048 287.144 545.779 287.144C548.68 287.144 551.539 286.632 554.355 285.608C557.256 284.499 559.646 282.835 561.523 280.616C563.4 278.397 564.339 275.453 564.339 271.784C564.339 268.627 563.486 266.024 561.779 263.976C560.158 261.843 557.982 260.051 555.251 258.6C552.52 257.064 549.619 255.699 546.547 254.504C543.646 253.395 540.702 252.2 537.715 250.92C534.728 249.555 531.955 247.933 529.395 246.056C526.835 244.093 524.787 241.704 523.251 238.888C521.715 236.072 520.947 232.659 520.947 228.648C520.947 223.784 522.099 219.56 524.403 215.976C526.792 212.307 530.035 209.448 534.131 207.4C538.227 205.267 542.92 204.115 548.211 203.944C554.184 203.944 559.432 204.669 563.955 206.12C568.563 207.571 572.616 209.363 576.115 211.496L571.379 220.968Z" fill="white"/>
<rect x="202" y="106" width="282" height="27" fill="white"/>
<rect x="202" y="169" width="282" height="27" fill="white"/>
</svg>
